# xmcd CD database file
#
# Track frame offsets:
#	150
#	15970
#	42385
#	61900
#	86457
#	105755
#	126622
#	146557
#	168572
#	189907
#	225795
#
# Disc length: 4440 seconds
#
# Revision: 0
# Processed by: cddbd v1.5.1PL0 Copyright (c) Steve Scherf et al.
# Submitted via: CDex 1.51
#
DISCID=7e11560b
DTITLE=dream - meets Best Hits avex
DYEAR=2004
DGENRE=JPop
TTITLE0=Bomb A Head!(from m.c.A.T)
TTITLE1=寒い夜だから・・・（from TRF)
TTITLE2=夢見る少女じゃいられない（from 相川七瀬)
TTITLE3=Can't Stop Fallin' Love(from globe)
TTITLE4=ILE AIYE〜WAになっておどろう(from AGHARTA)
TTITLE5=ESCAPE(from MOON CHILD)
TTITLE6=Oasis(from Do As Infinity)
TTITLE7=M(from 浜崎あゆｙみ）
TTITLE8=Every Heart-ミンナノキモチ-(from BoA)
TTITLE9=I Love world
TTITLE10=CCCD
EXTD=YEAR: 2004
EXTT0=
EXTT1=
EXTT2=
EXTT3=
EXTT4=
EXTT5=
EXTT6=
EXTT7=
EXTT8=
EXTT9=
EXTT10=
PLAYORDER=
